<svg xmlns="http://www.w3.org/2000/svg" version="1.1" xmlns:xlink="http://www.w3.org/1999/xlink" xmlns:svgjs="http://svgjs.dev/svgjs" width="1500" height="1500" viewBox="0 0 1500 1500"><rect width="1500" height="1500" fill="#ffffff"></rect><g transform="matrix(0.6666666666666666,0,0,0.6666666666666666,249.78425655976667,249.78425655976673)"><svg viewBox="0 0 343 343" data-background-color="#ffffff" preserveAspectRatio="xMidYMid meet" height="1500" width="1500" xmlns="http://www.w3.org/2000/svg" xmlns:xlink="http://www.w3.org/1999/xlink"><g id="tight-bounds" transform="matrix(1,0,0,1,0.0740000000000407,0.07400000000001228)"><svg viewBox="0 0 342.85155851775386 342.85155851775386" height="342.85155851775386" width="342.85155851775386"><g><svg></svg></g><g><svg viewBox="0 0 342.85155851775386 342.85155851775386" height="342.85155851775386" width="342.85155851775386"><g><path d="M0 171.426c0-94.676 76.75-171.426 171.426-171.426 94.676 0 171.426 76.75 171.426 171.426 0 94.676-76.75 171.426-171.426 171.426-94.676 0-171.426-76.75-171.426-171.426zM171.426 338.571c92.312 0 167.145-74.834 167.145-167.145 0-92.312-74.834-167.145-167.145-167.146-92.312 0-167.145 74.834-167.146 167.146 0 92.312 74.834 167.145 167.146 167.145z" data-fill-palette-color="tertiary" fill="#556970" stroke="transparent"></path><ellipse rx="164.56874808852186" ry="164.56874808852186" cx="171.42577925887693" cy="171.42577925887693" fill="#556970" stroke="transparent" stroke-width="0" fill-opacity="1" data-fill-palette-color="tertiary"></ellipse></g><g transform="matrix(1,0,0,1,64.84655864529837,80.43197932411987)"><svg viewBox="0 0 213.1584412271571 181.98759986951413" height="181.98759986951413" width="213.1584412271571"><g><svg viewBox="0 0 213.1584412271571 181.98759986951413" height="181.98759986951413" width="213.1584412271571"><g><svg viewBox="0 0 213.1584412271571 181.98759986951413" height="181.98759986951413" width="213.1584412271571"><g transform="matrix(1,0,0,1,0,110.29046477533015)"><svg viewBox="0 0 213.1584412271571 71.69713509418398" height="71.69713509418398" width="213.1584412271571"><g id="textblocktransform"><svg viewBox="0 0 213.1584412271571 71.69713509418398" height="71.69713509418398" width="213.1584412271571" id="textblock"><g><svg viewBox="0 0 213.1584412271571 47.4636306747314" height="47.4636306747314" width="213.1584412271571"><g transform="matrix(1,0,0,1,0,0)"><svg width="213.1584412271571" viewBox="3 -35.25 161.88 36.05" height="47.4636306747314" data-palette-color="#ffffff"><path d="M21.1 0L16.45 0 10.05-17.2 14.7-17.2 21.1 0ZM11.05-14.95L5.95-14.95 5.95-18.85 11.05-18.85 11.05-14.95ZM11.05-31.3L5.95-31.3 5.95-35.25 11.05-35.25 11.05-31.3ZM20.9-24.25L16.35-24.25 16.35-25.95 20.9-25.95 20.9-24.25ZM20.9-25.9L20.9-25.9 16.35-25.9Q16.35-28.5 14.93-29.9 13.5-31.3 11-31.3L11-31.3 11-35.25Q13.95-35.25 16.18-34.08 18.4-32.9 19.65-30.78 20.9-28.65 20.9-25.9ZM16.35-24.3L20.9-24.3Q20.9-21.55 19.65-19.43 18.4-17.3 16.18-16.13 13.95-14.95 11-14.95L11-14.95 11-18.85Q13.5-18.85 14.93-20.3 16.35-21.75 16.35-24.3L16.35-24.3ZM7.55 0L3 0 3-35.25 7.55-35.25 7.55 0ZM43.25-11.25L26.2-11.25 26.2-14.5 43.25-14.5 43.25-11.25ZM34.2 0.8L33.95 0.8 33.95-3.15 34.2-3.15 34.2 0.8ZM29.3-8.95L24.75-8.95 24.75-16.3 29.3-16.3 29.3-8.95ZM43.25-14.5L38.7-14.5 38.7-17.1 43.25-17.1 43.25-14.5ZM43.25-17.1L43.25-17.1 38.7-17.1Q38.7-19.3 37.37-20.7 36.05-22.1 33.95-22.1L33.95-22.1 33.95-26Q36.65-26 38.72-24.85 40.8-23.7 42.02-21.68 43.25-19.65 43.25-17.1ZM38.9-7.5L38.9-7.5 43.15-6.65Q42.85-4.5 41.6-2.8 40.35-1.1 38.45-0.15 36.55 0.8 34.2 0.8L34.2 0.8 34.2-3.15Q36-3.15 37.32-4.23 38.65-5.3 38.9-7.5ZM29.3-16.25L24.75-16.25Q24.75-19.1 25.97-21.28 27.2-23.45 29.27-24.73 31.35-26 34-26L34-26 34-22.1Q31.8-22.1 30.55-20.58 29.3-19.05 29.3-16.25L29.3-16.25ZM24.75-8.95L24.75-8.95 29.3-8.95Q29.3-6.2 30.55-4.67 31.8-3.15 34-3.15L34-3.15 34 0.8Q31.35 0.8 29.27-0.48 27.2-1.75 25.97-3.95 24.75-6.15 24.75-8.95ZM51.7-8.9L47.15-8.9 47.15-16.35 51.7-16.35 51.7-8.9ZM51.7-16.3L47.15-16.3Q47.15-19.1 48.37-21.3 49.6-23.5 51.67-24.78 53.75-26.05 56.4-26.05L56.4-26.05 56.4-22.1Q54.2-22.1 52.95-20.6 51.7-19.1 51.7-16.3L51.7-16.3ZM65.3-18.6L61.05-17.75Q60.8-20 59.47-21.05 58.15-22.1 56.35-22.1L56.35-22.1 56.35-26.05Q58.7-26.05 60.6-25.1 62.5-24.15 63.75-22.48 65-20.8 65.3-18.6L65.3-18.6ZM47.15-8.95L47.15-8.95 51.7-8.95Q51.7-6.2 52.95-4.67 54.2-3.15 56.4-3.15L56.4-3.15 56.4 0.8Q53.75 0.8 51.67-0.48 49.6-1.75 48.37-3.95 47.15-6.15 47.15-8.95ZM61.05-7.5L61.05-7.5 65.3-6.65Q65-4.5 63.75-2.8 62.5-1.1 60.6-0.15 58.7 0.8 56.35 0.8L56.35 0.8 56.35-3.15Q58.15-3.15 59.47-4.23 60.8-5.3 61.05-7.5ZM86.69-8.95L82.14-8.95 82.14-16.3 86.69-16.3 86.69-8.95ZM72.64-8.95L68.09-8.95 68.09-16.3 72.64-16.3 72.64-8.95ZM77.54-22.05L77.24-22.05 77.24-26 77.54-26 77.54-22.05ZM77.54 0.75L77.24 0.75 77.24-3.2 77.54-3.2 77.54 0.75ZM72.64-16.25L68.09-16.25Q68.09-19.05 69.32-21.25 70.54-23.45 72.62-24.73 74.69-26 77.34-26L77.34-26 77.34-22.05Q75.14-22.05 73.89-20.55 72.64-19.05 72.64-16.25L72.64-16.25ZM86.69-16.25L86.69-16.25 82.14-16.25Q82.14-19.05 80.92-20.55 79.69-22.05 77.44-22.05L77.44-22.05 77.44-26Q80.09-26 82.17-24.73 84.24-23.45 85.47-21.25 86.69-19.05 86.69-16.25ZM68.09-9L68.09-9 72.64-9Q72.64-6.25 73.89-4.73 75.14-3.2 77.34-3.2L77.34-3.2 77.34 0.75Q74.69 0.75 72.62-0.53 70.54-1.8 69.32-4 68.09-6.2 68.09-9ZM82.14-9L86.69-9Q86.69-6.2 85.47-4 84.24-1.8 82.17-0.53 80.09 0.75 77.44 0.75L77.44 0.75 77.44-3.2Q79.69-3.2 80.92-4.73 82.14-6.25 82.14-9L82.14-9ZM95.89 0L91.34 0 91.34-25.25 95.89-25.25 95.89 0ZM109.94 0L105.39 0 105.39-17.2 109.94-17.2 109.94 0ZM109.94-17.2L105.39-17.2Q105.39-19.3 104.09-20.63 102.79-21.95 100.74-21.95L100.74-21.95 101.89-26Q104.19-26 106.02-24.85 107.84-23.7 108.89-21.7 109.94-19.7 109.94-17.2L109.94-17.2ZM95.89-17.1L93.89-17.1Q93.89-19.65 94.94-21.68 95.99-23.7 97.79-24.85 99.59-26 101.89-26L101.89-26 100.74-21.95Q98.59-21.95 97.24-20.6 95.89-19.25 95.89-17.1L95.89-17.1ZM128.84-14.2L114.69-14.2 114.69-18.25 128.84-18.25 128.84-14.2ZM150.69-7.05L137.89-7.05 137.89-10.95 150.69-10.95 150.69-7.05ZM141.44-35.25L145.94-35.25 137.34 0 132.84 0 141.44-35.25ZM141.54-35.25L146.04-35.25 154.64 0 150.19 0 141.54-35.25ZM164.18 0L159.63 0 159.63-25.25 164.18-25.25 164.18 0ZM161.88-28.6L161.88-28.6Q160.63-28.6 159.78-29.45 158.93-30.3 158.93-31.55L158.93-31.55Q158.93-32.8 159.78-33.68 160.63-34.55 161.88-34.55L161.88-34.55Q163.13-34.55 164.01-33.68 164.88-32.8 164.88-31.55L164.88-31.55Q164.88-30.3 164.01-29.45 163.13-28.6 161.88-28.6Z" opacity="1" transform="matrix(1,0,0,1,0,0)" fill="#ffffff" class="wordmark-text-0" data-fill-palette-color="quaternary" id="text-0"></path></svg></g></svg></g><g transform="matrix(1,0,0,1,0,58.66865474989929)"><svg viewBox="0 0 213.1584412271571 13.028480344284683" height="13.028480344284683" width="213.1584412271571"><g transform="matrix(1,0,0,1,0,0)"><svg width="213.1584412271571" viewBox="2.15 -34.8 750.15 45.849999999999994" height="13.028480344284683" data-palette-color="#ffffff"><path d="M18.1 0.8L18.1 0.8Q13.1 0.8 9.53-0.88 5.95-2.55 4.05-5.9 2.15-9.25 2.15-14.15L2.15-14.15Q2.15-18.65 3.55-22.43 4.95-26.2 7.55-28.98 10.15-31.75 13.83-33.27 17.5-34.8 22.05-34.8L22.05-34.8Q25.7-34.8 27.68-33.93 29.65-33.05 29.65-30.8L29.65-30.8Q29.65-29.6 29.33-28.75 29-27.9 28.3-27.9L28.3-27.9Q27.8-27.9 27.25-28.2 26.7-28.5 26-28.85L26-28.85Q24.8-29.45 23.4-30.13 22-30.8 19.95-30.8L19.95-30.8Q16.75-30.8 14.23-28.85 11.7-26.9 10.25-23.38 8.8-19.85 8.8-15.05L8.8-15.05Q8.8-10.6 10.48-8.05 12.15-5.5 15.55-4.45 18.95-3.4 24.05-3.4L24.05-3.4 25.9-20.2 29.9-20.2Q30.9-20.2 31.23-19.73 31.55-19.25 31.55-17.9L31.55-17.9Q31.55-17.6 31.55-17.3 31.55-17 31.5-16.7L31.5-16.7 29.95-3.8Q29.75-2.35 29.38-1.25 29-0.15 28 0L28 0Q25.3 0.4 22.83 0.6 20.35 0.8 18.1 0.8ZM39.55 0.65L39.55 0.65Q37.6 0.65 36.52-0.43 35.45-1.5 35.45-3.65L35.45-3.65Q35.45-4.4 35.48-5.15 35.5-5.9 35.63-6.95 35.75-8 35.95-9.65L35.95-9.65 37.85-24.55 41.35-24.55Q42.2-24.55 42.48-23.58 42.75-22.6 42.75-21.2L42.75-21.2Q42.75-20.15 42.6-18.45 42.45-16.75 42.15-14.7L42.15-14.7 41.55-10.6Q41.35-9.2 41.27-8.1 41.2-7 41.2-6.3L41.2-6.3Q41.2-5.3 41.42-4.78 41.65-4.25 42.3-4.25L42.3-4.25Q43.05-4.25 44.2-5.35 45.35-6.45 46.63-8.25 47.9-10.05 49-12.13 50.1-14.2 50.8-16.15 51.5-18.1 51.5-19.5L51.5-19.5Q51.5-20.65 51.23-21.43 50.95-22.2 51-22.7L51-22.7Q51-23.15 51.58-23.5 52.15-23.85 52.95-24.08 53.75-24.3 54.55-24.43 55.35-24.55 55.8-24.55L55.8-24.55Q56.65-24.55 57.13-23.55 57.6-22.55 57.4-20.7L57.4-20.7 55.05 0.5 51.55 0.5Q50.95 0.5 50.6-0.13 50.25-0.75 50.13-1.55 50-2.35 50-2.75L50-2.75Q50-3.9 50.33-5.25 50.65-6.6 51.28-8.7 51.9-10.8 52.8-14.1L52.8-14.1 52.8-13.25Q50.85-8.15 48.5-5.1 46.15-2.05 43.85-0.7 41.55 0.65 39.55 0.65ZM65.95 0.8L65.95 0.8Q63.15 0.8 61.95-1.48 60.75-3.75 60.75-7.85L60.75-7.85Q60.75-11.5 61.82-14.55 62.9-17.6 64.75-19.83 66.6-22.05 69.05-23.28 71.5-24.5 74.25-24.5L74.25-24.5Q76.4-24.5 78.17-23.93 79.95-23.35 81.2-22.75L81.2-22.75 79.75-17.5Q78.4-18.4 76.72-19.15 75.05-19.9 73.63-20.33 72.2-20.75 71.5-20.75L71.5-20.75Q70.1-20.75 68.92-19.38 67.75-18 67.08-15.58 66.4-13.15 66.4-10L66.4-10Q66.4-7.1 66.83-5.6 67.25-4.1 68.2-4.1L68.2-4.1Q68.85-4.1 70.4-5.58 71.95-7.05 74.15-10.5 76.35-13.95 78.8-19.85L78.8-19.85 80.2-15.4Q77.5-9.4 75.05-5.85 72.6-2.3 70.35-0.75 68.1 0.8 65.95 0.8ZM81.4 0.5L77.9 0.5Q76.9 0.5 76.7-0.48 76.5-1.45 76.5-2.55L76.5-2.55Q76.5-3.4 76.72-4.65 76.95-5.9 77.3-7.35 77.65-8.8 78.05-10.2L78.05-10.2 79.15-13.95 77.7-15.25 78.9-22.8Q80.5-23.05 81.72-23.45 82.95-23.85 83.78-24.15 84.6-24.45 84.95-24.45L84.95-24.45Q85.5-24.45 85.5-23.85L85.5-23.85Q85.5-23.6 84.88-21.73 84.25-19.85 83.53-16.95 82.8-14.05 82.45-10.65L82.45-10.65 81.4 0.5ZM93.6-1.2L93.6-1.2 92.4-8.75Q94.25-13.55 96.17-17.07 98.1-20.6 100.1-22.55 102.1-24.5 104.15-24.5L104.15-24.5Q105.3-24.5 105.8-23.78 106.3-23.05 106.3-21.95L106.3-21.95Q106.3-20.95 106.08-20.03 105.85-19.1 105.42-18.5 105-17.9 104.4-17.9L104.4-17.9Q103.85-17.9 103.17-18.25 102.5-18.6 101.35-18.6L101.35-18.6Q100.6-18.6 99.45-17.05 98.3-15.5 97.08-12.93 95.85-10.35 94.9-7.28 93.95-4.2 93.6-1.2ZM89.4 0.7L89.4 0.7Q88.75 0.7 88.42 0.48 88.1 0.25 88.08-0.7 88.05-1.65 88.3-3.75L88.3-3.75 90.65-24.55 94.15-24.55Q94.9-24.55 95.5-23.45 96.1-22.35 96.1-20.95L96.1-20.95Q96.1-20.3 95.72-18.93 95.35-17.55 94.85-16.03 94.35-14.5 93.95-13.35L93.95-13.35 92.65-9.25 94.5-9.55 93.6-1.2Q93.55-0.7 93-0.33 92.45 0.05 91.72 0.28 91 0.5 90.35 0.6 89.7 0.7 89.4 0.7ZM110.55 0.8L110.55 0.8Q107.85 0.8 106.67-1.4 105.5-3.6 105.5-7.85L105.5-7.85Q105.5-11.5 106.52-14.55 107.55-17.6 109.4-19.83 111.25-22.05 113.7-23.28 116.15-24.5 119-24.5L119-24.5Q120.75-24.5 122.47-23.93 124.2-23.35 125.45-22.75L125.45-22.75 123.85-17.85Q122.5-18.75 121.03-19.4 119.55-20.05 118.33-20.4 117.1-20.75 116.45-20.75L116.45-20.75Q115-20.75 113.8-19.38 112.6-18 111.88-15.58 111.15-13.15 111.15-10L111.15-10Q111.15-7.1 111.58-5.6 112-4.1 112.95-4.1L112.95-4.1Q113.75-4.1 115.42-5.58 117.1-7.05 119.33-10.5 121.55-13.95 124-19.85L124-19.85 125.45-15.4Q122.8-9.4 120.2-5.85 117.6-2.3 115.17-0.75 112.75 0.8 110.55 0.8ZM127.25 0.5L123.75 0.5Q123.2 0.5 122.8-0.13 122.4-0.75 122.2-1.65 122-2.55 122-3.3L122-3.3Q122-4.55 122.42-6.15 122.85-7.75 123.5-10.2L123.5-10.2 124.5-13.95 123.05-15.55 123.6-20.8 124.3-21.65 124.7-34.8 128.6-34.8Q129.35-34.8 129.82-34.15 130.3-33.5 130.53-32.63 130.75-31.75 130.75-30.95L130.75-30.95Q130.75-30.45 130.7-29.83 130.65-29.2 130.5-28.13 130.35-27.05 130.05-25.15L130.05-25.15 128.4-13.65Q128.05-11.25 127.8-8.75 127.55-6.25 127.42-3.9 127.3-1.55 127.25 0.5L127.25 0.5ZM138.75 0.8L135.25 0.8Q134.4 0.8 134.15-0.18 133.9-1.15 133.9-2.2L133.9-2.2Q133.9-4 134.07-5.4 134.25-6.8 134.45-8.5L134.45-8.5 136.25-24.55 139.75-24.55Q140.75-24.55 141.05-23.45 141.35-22.35 141.35-20.95L141.35-20.95Q141.35-20.25 141.25-19.48 141.15-18.7 140.95-17.1L140.95-17.1 140-8.95Q139.7-6.35 139.45-4.6 139.2-2.85 139.05-1.6 138.9-0.35 138.75 0.8L138.75 0.8ZM139.65-27.4L139.65-27.4Q138.25-27.4 137.22-28.35 136.2-29.3 136.2-30.85L136.2-30.85Q136.2-32.7 137.4-33.73 138.6-34.75 140.15-34.75L140.15-34.75Q141.6-34.75 142.57-33.9 143.55-33.05 143.55-31.35L143.55-31.35Q143.55-29.65 142.4-28.53 141.25-27.4 139.65-27.4ZM165.1 0.5L161.55 0.5Q161 0.5 160.72-0.03 160.45-0.55 160.38-1.2 160.3-1.85 160.3-2.25L160.3-2.25Q160.3-2.95 160.4-4.05 160.5-5.15 160.65-6.38 160.8-7.6 160.95-8.5L160.95-8.5 161.8-13.7Q161.95-14.7 162.1-15.58 162.25-16.45 162.25-17.45L162.25-17.45Q162.25-18.2 161.95-18.6 161.65-19 161.15-19L161.15-19Q160.5-19 159-17.75 157.5-16.5 155.8-14.18 154.1-11.85 152.72-8.6 151.35-5.35 150.95-1.35L150.95-1.35 149.65-8.75Q151.15-13.1 153.02-16.1 154.9-19.1 156.85-20.95 158.8-22.8 160.63-23.65 162.45-24.5 163.85-24.5L163.85-24.5Q165.35-24.5 166.27-23.95 167.2-23.4 167.63-22.43 168.05-21.45 168.05-20.15L168.05-20.15Q168.05-18.9 167.88-17.68 167.7-16.45 167.5-15.15L167.5-15.15 165.1 0.5ZM146.6 0.7L146.6 0.7Q145.95 0.7 145.63 0.48 145.3 0.25 145.27-0.7 145.25-1.65 145.5-3.75L145.5-3.75 147.85-24.55 151.35-24.55Q152.1-24.55 152.7-23.45 153.3-22.35 153.3-20.95L153.3-20.95Q153.3-20.3 152.92-18.93 152.55-17.55 152.05-16.03 151.55-14.5 151.15-13.35L151.15-13.35 149.85-9.25 151.7-9.55 150.9-1.35Q150.85-0.85 150.3-0.45 149.75-0.05 149 0.2 148.25 0.45 147.57 0.58 146.9 0.7 146.6 0.7ZM179.7 11.05L179.7 11.05Q177.3 11.05 175.32 10.33 173.35 9.6 172.17 8.05 171 6.5 171 4L171 4Q171 3.15 171.55 3.15L171.55 3.15Q171.8 3.15 172.2 3.35 172.6 3.55 173.25 3.9L173.25 3.9Q174.15 4.4 175.67 5.18 177.2 5.95 178.85 6.55 180.5 7.15 181.75 7.15L181.75 7.15Q182.55 7.15 183.28 6.8 184 6.45 184.67 5.48 185.35 4.5 185.95 2.68 186.55 0.85 187.1-2.1L187.1-2.1 189.6-15.65 188.7-16.85 188.75-23.25Q191.95-23.65 193.4-24.05 194.85-24.45 195.4-24.45L195.4-24.45Q195.9-24.45 195.9-23.85L195.9-23.85Q195.9-23.6 195.28-21.75 194.65-19.9 193.95-17 193.25-14.1 193.1-10.5L193.1-10.5 192.75-1.5Q192.6 2 191.38 4.4 190.15 6.8 188.2 8.28 186.25 9.75 184.03 10.4 181.8 11.05 179.7 11.05ZM176.55 0.45L176.55 0.45Q173.75 0.45 172.55-1.83 171.35-4.1 171.35-8.2L171.35-8.2Q171.35-11.65 172.4-14.63 173.45-17.6 175.28-19.8 177.1-22 179.53-23.25 181.95-24.5 184.7-24.5L184.7-24.5Q186.85-24.5 188.63-23.93 190.4-23.35 191.65-22.75L191.65-22.75 190.2-17.5Q188.85-18.4 187.17-19.15 185.5-19.9 184.07-20.33 182.65-20.75 181.95-20.75L181.95-20.75Q180.55-20.75 179.42-19.35 178.3-17.95 177.65-15.6 177-13.25 177-10.35L177-10.35Q177-7.45 177.42-5.95 177.85-4.45 178.8-4.45L178.8-4.45Q179.45-4.45 180.97-5.85 182.5-7.25 184.65-10.6 186.8-13.95 189.25-19.85L189.25-19.85 190.65-15.4Q187.95-9.4 185.53-5.93 183.1-2.45 180.9-1 178.7 0.45 176.55 0.45ZM216.85 0.4L213.35 0.4Q212.65 0.4 212.22-0.2 211.8-0.8 211.6-1.75 211.4-2.7 211.4-3.65L211.4-3.65Q211.4-5.7 211.65-7.6 211.9-9.5 212.1-11.7L212.1-11.7 214.5-34.75 218-34.75Q219.3-34.75 219.72-33.77 220.15-32.8 220.15-31.45L220.15-31.45Q220.15-30.25 220.05-29.3 219.95-28.35 219.78-27 219.6-25.65 219.35-23.3L219.35-23.3 216.85 0.4ZM227.8 0.8L227.8 0.8Q225.1 0.8 223.93-1.4 222.75-3.6 222.75-7.85L222.75-7.85Q222.75-11.5 223.78-14.55 224.8-17.6 226.65-19.83 228.5-22.05 230.95-23.28 233.4-24.5 236.25-24.5L236.25-24.5Q238-24.5 239.73-23.93 241.45-23.35 242.7-22.75L242.7-22.75 241.1-17.85Q239.75-18.75 238.28-19.4 236.8-20.05 235.58-20.4 234.35-20.75 233.7-20.75L233.7-20.75Q232.25-20.75 231.05-19.38 229.85-18 229.13-15.58 228.4-13.15 228.4-10L228.4-10Q228.4-7.1 228.83-5.6 229.25-4.1 230.2-4.1L230.2-4.1Q231-4.1 232.68-5.58 234.35-7.05 236.58-10.5 238.8-13.95 241.25-19.85L241.25-19.85 242.7-15.4Q240.05-9.4 237.45-5.85 234.85-2.3 232.43-0.75 230 0.8 227.8 0.8ZM244.5 0.5L241 0.5Q240.45 0.5 240.05-0.13 239.65-0.75 239.45-1.65 239.25-2.55 239.25-3.3L239.25-3.3Q239.25-4.55 239.68-6.15 240.1-7.75 240.75-10.2L240.75-10.2 241.75-13.95 240.3-15.55 240.85-20.8 241.55-21.65 241.95-34.8 245.85-34.8Q246.6-34.8 247.08-34.15 247.55-33.5 247.78-32.63 248-31.75 248-30.95L248-30.95Q248-30.45 247.95-29.83 247.9-29.2 247.75-28.13 247.6-27.05 247.3-25.15L247.3-25.15 245.65-13.65Q245.3-11.25 245.05-8.75 244.8-6.25 244.68-3.9 244.55-1.55 244.5 0.5L244.5 0.5ZM258.15 0.8L258.15 0.8Q254.3 0.8 252.2-1.63 250.1-4.05 250.1-8.3L250.1-8.3Q250.1-11.85 251.1-14.8 252.1-17.75 253.9-19.95 255.7-22.15 258.13-23.35 260.55-24.55 263.4-24.55L263.4-24.55Q266.8-24.55 268.6-23.1 270.4-21.65 270.4-18.95L270.4-18.95Q270.4-16.2 268.58-14.15 266.75-12.1 263.33-10.65 259.9-9.2 255.15-8.2L255.15-8.2 254.5-11.2Q257.25-11.55 259.55-12.4 261.85-13.25 263.25-14.68 264.65-16.1 264.65-18.05L264.65-18.05Q264.65-19.4 264.13-20.1 263.6-20.8 262.25-20.8L262.25-20.8Q260.2-20.8 258.78-19.3 257.35-17.8 256.63-15.4 255.9-13 255.9-10.3L255.9-10.3Q255.9-6.65 257.03-5.43 258.15-4.2 260.35-4.2L260.35-4.2Q262.65-4.2 264.38-4.93 266.1-5.65 267.35-6.45L267.35-6.45Q267.75-6.7 268.05-6.85 268.35-7 268.55-7L268.55-7Q268.8-7 268.95-6.8 269.1-6.6 269.1-6.35L269.1-6.35Q269.1-5.45 268.3-4.25 267.5-3.05 266.03-1.9 264.55-0.75 262.55 0.03 260.55 0.8 258.15 0.8ZM292.85 0.5L289.3 0.5Q288.75 0.5 288.48-0.03 288.2-0.55 288.13-1.2 288.05-1.85 288.05-2.25L288.05-2.25Q288.05-2.95 288.15-4.05 288.25-5.15 288.4-6.38 288.55-7.6 288.7-8.5L288.7-8.5 289.55-13.7Q289.7-14.7 289.85-15.58 290-16.45 290-17.45L290-17.45Q290-18.2 289.7-18.6 289.4-19 288.9-19L288.9-19Q288.25-19 286.75-17.75 285.25-16.5 283.55-14.18 281.85-11.85 280.48-8.6 279.1-5.35 278.7-1.35L278.7-1.35 277.4-8.75Q278.9-13.1 280.78-16.1 282.65-19.1 284.6-20.95 286.55-22.8 288.38-23.65 290.2-24.5 291.6-24.5L291.6-24.5Q293.1-24.5 294.03-23.95 294.95-23.4 295.38-22.43 295.8-21.45 295.8-20.15L295.8-20.15Q295.8-18.9 295.63-17.68 295.45-16.45 295.25-15.15L295.25-15.15 292.85 0.5ZM274.35 0.7L274.35 0.7Q273.7 0.7 273.38 0.48 273.05 0.25 273.03-0.7 273-1.65 273.25-3.75L273.25-3.75 275.6-24.55 279.1-24.55Q279.85-24.55 280.45-23.45 281.05-22.35 281.05-20.95L281.05-20.95Q281.05-20.3 280.68-18.93 280.3-17.55 279.8-16.03 279.3-14.5 278.9-13.35L278.9-13.35 277.6-9.25 279.45-9.55 278.65-1.35Q278.6-0.85 278.05-0.45 277.5-0.05 276.75 0.2 276 0.45 275.33 0.58 274.65 0.7 274.35 0.7ZM304.45 0.8L304.45 0.8Q302.05 0.8 301.08-0.6 300.1-2 300.45-5L300.45-5 302.4-20.25 300.8-20.25Q300.05-20.25 300.05-21.05L300.05-21.05Q300.05-21.55 300.73-22.5 301.4-23.45 302.45-24.6 303.5-25.75 304.63-26.8 305.75-27.85 306.7-28.53 307.65-29.2 308.15-29.2L308.15-29.2Q308.7-29.2 308.9-28.78 309.1-28.35 309-27.7L309-27.7 308.55-23.75 314.15-23.75Q314.9-23.75 315.03-23.5 315.15-23.25 314.95-22.7L314.95-22.7Q314.35-21 313.83-20.63 313.3-20.25 311.9-20.25L311.9-20.25 307.9-20.25 306.65-9.55Q306.55-8.6 306.48-7.75 306.4-6.9 306.4-6.2L306.4-6.2Q306.4-5.05 306.95-4.58 307.5-4.1 308.75-4.1L308.75-4.1Q309.95-4.1 310.83-4.6 311.7-5.1 312.05-5.1L312.05-5.1Q312.45-5.1 312.45-4.6L312.45-4.6Q312.45-4.1 311.93-3.2 311.4-2.3 310.38-1.38 309.35-0.45 307.85 0.18 306.35 0.8 304.45 0.8ZM321.55 0.8L318.05 0.8Q317.2 0.8 316.95-0.18 316.7-1.15 316.7-2.2L316.7-2.2Q316.7-4 316.88-5.4 317.05-6.8 317.25-8.5L317.25-8.5 319.05-24.55 322.55-24.55Q323.55-24.55 323.85-23.45 324.15-22.35 324.15-20.95L324.15-20.95Q324.15-20.25 324.05-19.48 323.95-18.7 323.75-17.1L323.75-17.1 322.8-8.95Q322.5-6.35 322.25-4.6 322-2.85 321.85-1.6 321.7-0.35 321.55 0.8L321.55 0.8ZM322.45-27.4L322.45-27.4Q321.05-27.4 320.03-28.35 319-29.3 319-30.85L319-30.85Q319-32.7 320.2-33.73 321.4-34.75 322.95-34.75L322.95-34.75Q324.4-34.75 325.38-33.9 326.35-33.05 326.35-31.35L326.35-31.35Q326.35-29.65 325.2-28.53 324.05-27.4 322.45-27.4ZM332.85 0.8L332.85 0.8Q330.45 0.8 329.48-0.6 328.5-2 328.85-5L328.85-5 330.8-20.25 329.2-20.25Q328.45-20.25 328.45-21.05L328.45-21.05Q328.45-21.55 329.13-22.5 329.8-23.45 330.85-24.6 331.9-25.75 333.03-26.8 334.15-27.85 335.1-28.53 336.05-29.2 336.55-29.2L336.55-29.2Q337.1-29.2 337.3-28.78 337.5-28.35 337.4-27.7L337.4-27.7 336.95-23.75 342.55-23.75Q343.3-23.75 343.43-23.5 343.55-23.25 343.35-22.7L343.35-22.7Q342.75-21 342.23-20.63 341.7-20.25 340.3-20.25L340.3-20.25 336.3-20.25 335.05-9.55Q334.95-8.6 334.88-7.75 334.8-6.9 334.8-6.2L334.8-6.2Q334.8-5.05 335.35-4.58 335.9-4.1 337.15-4.1L337.15-4.1Q338.35-4.1 339.23-4.6 340.1-5.1 340.45-5.1L340.45-5.1Q340.85-5.1 340.85-4.6L340.85-4.6Q340.85-4.1 340.33-3.2 339.8-2.3 338.78-1.38 337.75-0.45 336.25 0.18 334.75 0.8 332.85 0.8ZM351.5 11.05L351.5 11.05Q349.35 11.05 347.7 10.38 346.05 9.7 345.1 8.2 344.15 6.7 344.15 4.2L344.15 4.2Q344.15 3.7 344.33 3.53 344.5 3.35 344.7 3.35L344.7 3.35Q344.95 3.35 345.3 3.55 345.65 3.75 346.3 4.15L346.3 4.15Q347.2 4.75 348.38 5.43 349.55 6.1 350.9 6.6 352.25 7.1 353.55 7.1L353.55 7.1Q354.85 7.1 355.95 6.28 357.05 5.45 358.03 3.4 359 1.35 359.9-2.25L359.9-2.25 362.7-13.65 363-13.7Q361.15-8.8 358.73-5.63 356.3-2.45 353.83-0.93 351.35 0.6 349.35 0.6L349.35 0.6Q347.25 0.6 346.25-0.55 345.25-1.7 345.25-3.75L345.25-3.75Q345.25-4.75 345.38-5.95 345.5-7.15 345.8-9.7L345.8-9.7 347.65-24.55 351.15-24.55Q352-24.55 352.45-23.58 352.9-22.6 352.9-21.2L352.9-21.2Q352.9-20.2 352.8-19.43 352.7-18.65 352.53-17.68 352.35-16.7 352.05-14.9L352.05-14.9 351.35-10.6Q351.15-9.2 351.03-8.13 350.9-7.05 350.9-6.35L350.9-6.35Q350.9-5.3 351.13-4.78 351.35-4.25 352.15-4.25L352.15-4.25Q353-4.25 354.13-5.35 355.25-6.45 356.45-8.2 357.65-9.95 358.68-11.95 359.7-13.95 360.35-15.83 361-17.7 361-18.95L361-18.95Q361-19.8 360.85-20.78 360.7-21.75 360.7-22.5L360.7-22.5Q360.7-23.1 361.68-23.58 362.65-24.05 363.88-24.3 365.1-24.55 365.8-24.55L365.8-24.55Q366.5-24.55 366.93-23.9 367.35-23.25 367.35-21.45L367.35-21.45Q367.35-20.6 367.08-18.93 366.8-17.25 366.7-15.8L366.7-15.8 365.45-1.5Q365.15 1.75 363.83 4.13 362.5 6.5 360.5 8.03 358.5 9.55 356.15 10.3 353.8 11.05 351.5 11.05ZM368.3 7.25L368.3 7.25Q368.3 6.95 368.45 6.78 368.6 6.6 368.9 6.5L368.9 6.5Q371.1 5.65 372.15 4.23 373.2 2.8 373.2 1.1L373.2 1.1Q373.2 0.55 373.05 0.1 372.9-0.35 372-1.75L372-1.75 374.8 0.5Q374.05 0.8 373.25 0.8L373.25 0.8Q371.85 0.8 370.85-0.15 369.85-1.1 369.85-2.65L369.85-2.65Q369.85-4.5 371.05-5.53 372.25-6.55 373.8-6.55L373.8-6.55Q375.6-6.55 376.53-5.25 377.45-3.95 377.45-2L377.45-2Q377.45 0.6 376.65 2.58 375.85 4.55 374.6 5.85 373.35 7.15 371.95 7.83 370.55 8.5 369.4 8.5L369.4 8.5Q368.95 8.5 368.63 8.08 368.3 7.65 368.3 7.25ZM396.95 0.6L396.95 0.6Q396.05 0.6 395.58-0.5 395.1-1.6 395.1-2.95L395.1-2.95Q395.1-4.9 395.55-9.3L395.55-9.3 398.05-34 405.75-34Q409.3-34 411.38-34.13 413.45-34.25 414.53-34.38 415.6-34.5 416.1-34.5L416.1-34.5Q416.65-34.5 416.88-34.33 417.1-34.15 417.1-33.4L417.1-33.4Q417.1-32.5 416.75-31.45 416.4-30.4 415.83-29.65 415.25-28.9 414.5-28.9L414.5-28.9Q414-28.9 412.85-29.05 411.7-29.2 410.25-29.4L410.25-29.4 403.75-30.25 401.5-7.95Q401.4-6.9 401.4-5.85 401.4-4.8 401.55-3.75L401.55-3.75 412.25-5.85Q413.15-6.05 413.78-6.18 414.4-6.3 414.6-6.3L414.6-6.3Q415.2-6.3 415.2-5.6L415.2-5.6Q415.2-4.35 414.78-3.05 414.35-1.75 413.6-0.88 412.85 0 411.75 0L411.75 0 410.25 0Q404.65 0 401.45 0.3 398.25 0.6 396.95 0.6ZM405.9-15.85L399.5-15.75 400.15-19.6 402.55-19.6Q404.7-19.6 406.6-19.75 408.5-19.9 409.8-20.05 411.1-20.2 411.45-20.2L411.45-20.2Q411.85-20.2 412.05-19.98 412.25-19.75 412.25-19.35L412.25-19.35Q412.25-18.6 411.25-17.8 410.25-17 408.78-16.45 407.3-15.9 405.9-15.85L405.9-15.85ZM438.55 0.5L435 0.5Q434.45 0.5 434.18-0.03 433.9-0.55 433.83-1.2 433.75-1.85 433.75-2.25L433.75-2.25Q433.75-2.95 433.85-4.05 433.95-5.15 434.1-6.38 434.25-7.6 434.4-8.5L434.4-8.5 435.25-13.7Q435.4-14.7 435.55-15.58 435.7-16.45 435.7-17.45L435.7-17.45Q435.7-18.2 435.4-18.6 435.1-19 434.6-19L434.6-19Q433.95-19 432.45-17.75 430.95-16.5 429.25-14.18 427.55-11.85 426.18-8.6 424.8-5.35 424.4-1.35L424.4-1.35 423.1-8.75Q424.6-13.1 426.48-16.1 428.35-19.1 430.3-20.95 432.25-22.8 434.08-23.65 435.9-24.5 437.3-24.5L437.3-24.5Q438.8-24.5 439.73-23.95 440.65-23.4 441.08-22.43 441.5-21.45 441.5-20.15L441.5-20.15Q441.5-18.9 441.33-17.68 441.15-16.45 440.95-15.15L440.95-15.15 438.55 0.5ZM420.05 0.7L420.05 0.7Q419.4 0.7 419.08 0.48 418.75 0.25 418.73-0.7 418.7-1.65 418.95-3.75L418.95-3.75 421.3-24.55 424.8-24.55Q425.55-24.55 426.15-23.45 426.75-22.35 426.75-20.95L426.75-20.95Q426.75-20.3 426.38-18.93 426-17.55 425.5-16.03 425-14.5 424.6-13.35L424.6-13.35 423.3-9.25 425.15-9.55 424.35-1.35Q424.3-0.85 423.75-0.45 423.2-0.05 422.45 0.2 421.7 0.45 421.03 0.58 420.35 0.7 420.05 0.7ZM451.85 0.8L451.85 0.8Q448.05 0.8 445.88-0.38 443.7-1.55 443.7-3.55L443.7-3.55Q443.7-4.45 443.98-5.23 444.25-6 444.8-6L444.8-6Q445-6 445.25-5.9 445.5-5.8 446.2-5.35L446.2-5.35Q447.2-4.7 448.43-4.15 449.65-3.6 450.93-3.28 452.2-2.95 453.3-2.95L453.3-2.95Q454.9-2.95 455.63-3.73 456.35-4.5 456.35-5.8L456.35-5.8Q456.35-6.75 455.78-7.38 455.2-8 453.95-8.8L453.95-8.8 450.85-10.8Q448.9-12.05 447.58-13.48 446.25-14.9 446.25-17.2L446.25-17.2Q446.25-20.45 448.75-22.48 451.25-24.5 455.8-24.5L455.8-24.5Q459-24.5 460.5-23.85 462-23.2 462-21.6L462-21.6Q462-20.35 461.63-19.5 461.25-18.65 460.6-18.65L460.6-18.65Q460.4-18.65 460.08-18.75 459.75-18.85 459.5-19L459.5-19Q459.1-19.25 458.25-19.7 457.4-20.15 456.35-20.53 455.3-20.9 454.15-20.9L454.15-20.9Q453-20.9 452.28-20.23 451.55-19.55 451.55-18.4L451.55-18.4Q451.55-17.45 452.15-16.8 452.75-16.15 454.15-15.45L454.15-15.45 457.4-13.95Q459.45-13 460.73-11.73 462-10.45 462-7.95L462-7.95Q462-5 460.58-3.05 459.15-1.1 456.83-0.15 454.5 0.8 451.85 0.8ZM470 0.65L470 0.65Q468.05 0.65 466.98-0.43 465.9-1.5 465.9-3.65L465.9-3.65Q465.9-4.4 465.93-5.15 465.95-5.9 466.08-6.95 466.2-8 466.4-9.65L466.4-9.65 468.3-24.55 471.8-24.55Q472.65-24.55 472.93-23.58 473.2-22.6 473.2-21.2L473.2-21.2Q473.2-20.15 473.05-18.45 472.9-16.75 472.6-14.7L472.6-14.7 472-10.6Q471.8-9.2 471.73-8.1 471.65-7 471.65-6.3L471.65-6.3Q471.65-5.3 471.88-4.78 472.1-4.25 472.75-4.25L472.75-4.25Q473.5-4.25 474.65-5.35 475.8-6.45 477.08-8.25 478.35-10.05 479.45-12.13 480.55-14.2 481.25-16.15 481.95-18.1 481.95-19.5L481.95-19.5Q481.95-20.65 481.68-21.43 481.4-22.2 481.45-22.7L481.45-22.7Q481.45-23.15 482.03-23.5 482.6-23.85 483.4-24.08 484.2-24.3 485-24.43 485.8-24.55 486.25-24.55L486.25-24.55Q487.1-24.55 487.58-23.55 488.05-22.55 487.85-20.7L487.85-20.7 485.5 0.5 482 0.5Q481.4 0.5 481.05-0.13 480.7-0.75 480.58-1.55 480.45-2.35 480.45-2.75L480.45-2.75Q480.45-3.9 480.78-5.25 481.1-6.6 481.73-8.7 482.35-10.8 483.25-14.1L483.25-14.1 483.25-13.25Q481.3-8.15 478.95-5.1 476.6-2.05 474.3-0.7 472 0.65 470 0.65ZM497.35-1.2L497.35-1.2 496.15-8.75Q498-13.55 499.93-17.07 501.85-20.6 503.85-22.55 505.85-24.5 507.9-24.5L507.9-24.5Q509.05-24.5 509.55-23.78 510.05-23.05 510.05-21.95L510.05-21.95Q510.05-20.95 509.83-20.03 509.6-19.1 509.18-18.5 508.75-17.9 508.15-17.9L508.15-17.9Q507.6-17.9 506.93-18.25 506.25-18.6 505.1-18.6L505.1-18.6Q504.35-18.6 503.2-17.05 502.05-15.5 500.83-12.93 499.6-10.35 498.65-7.28 497.7-4.2 497.35-1.2ZM493.15 0.7L493.15 0.7Q492.5 0.7 492.18 0.48 491.85 0.25 491.83-0.7 491.8-1.65 492.05-3.75L492.05-3.75 494.4-24.55 497.9-24.55Q498.65-24.55 499.25-23.45 499.85-22.35 499.85-20.95L499.85-20.95Q499.85-20.3 499.48-18.93 499.1-17.55 498.6-16.03 498.1-14.5 497.7-13.35L497.7-13.35 496.4-9.25 498.25-9.55 497.35-1.2Q497.3-0.7 496.75-0.33 496.2 0.05 495.48 0.28 494.75 0.5 494.1 0.6 493.45 0.7 493.15 0.7ZM516.2 0.8L512.7 0.8Q511.85 0.8 511.6-0.18 511.35-1.15 511.35-2.2L511.35-2.2Q511.35-4 511.53-5.4 511.7-6.8 511.9-8.5L511.9-8.5 513.7-24.55 517.2-24.55Q518.2-24.55 518.5-23.45 518.8-22.35 518.8-20.95L518.8-20.95Q518.8-20.25 518.7-19.48 518.6-18.7 518.4-17.1L518.4-17.1 517.45-8.95Q517.15-6.35 516.9-4.6 516.65-2.85 516.5-1.6 516.35-0.35 516.2 0.8L516.2 0.8ZM517.1-27.4L517.1-27.4Q515.7-27.4 514.68-28.35 513.65-29.3 513.65-30.85L513.65-30.85Q513.65-32.7 514.85-33.73 516.05-34.75 517.6-34.75L517.6-34.75Q519.05-34.75 520.03-33.9 521-33.05 521-31.35L521-31.35Q521-29.65 519.85-28.53 518.7-27.4 517.1-27.4ZM542.55 0.5L539 0.5Q538.45 0.5 538.18-0.03 537.9-0.55 537.83-1.2 537.75-1.85 537.75-2.25L537.75-2.25Q537.75-2.95 537.85-4.05 537.95-5.15 538.1-6.38 538.25-7.6 538.4-8.5L538.4-8.5 539.25-13.7Q539.4-14.7 539.55-15.58 539.7-16.45 539.7-17.45L539.7-17.45Q539.7-18.2 539.4-18.6 539.1-19 538.6-19L538.6-19Q537.95-19 536.45-17.75 534.95-16.5 533.25-14.18 531.55-11.85 530.18-8.6 528.8-5.35 528.4-1.35L528.4-1.35 527.1-8.75Q528.6-13.1 530.48-16.1 532.35-19.1 534.3-20.95 536.25-22.8 538.08-23.65 539.9-24.5 541.3-24.5L541.3-24.5Q542.8-24.5 543.73-23.95 544.65-23.4 545.08-22.43 545.5-21.45 545.5-20.15L545.5-20.15Q545.5-18.9 545.33-17.68 545.15-16.45 544.95-15.15L544.95-15.15 542.55 0.5ZM524.05 0.7L524.05 0.7Q523.4 0.7 523.08 0.48 522.75 0.25 522.73-0.7 522.7-1.65 522.95-3.75L522.95-3.75 525.3-24.55 528.8-24.55Q529.55-24.55 530.15-23.45 530.75-22.35 530.75-20.95L530.75-20.95Q530.75-20.3 530.38-18.93 530-17.55 529.5-16.03 529-14.5 528.6-13.35L528.6-13.35 527.3-9.25 529.15-9.55 528.35-1.35Q528.3-0.85 527.75-0.45 527.2-0.05 526.45 0.2 525.7 0.45 525.03 0.58 524.35 0.7 524.05 0.7ZM557.15 11.05L557.15 11.05Q554.75 11.05 552.78 10.33 550.8 9.6 549.63 8.05 548.45 6.5 548.45 4L548.45 4Q548.45 3.15 549 3.15L549 3.15Q549.25 3.15 549.65 3.35 550.05 3.55 550.7 3.9L550.7 3.9Q551.6 4.4 553.13 5.18 554.65 5.95 556.3 6.55 557.95 7.15 559.2 7.15L559.2 7.15Q560 7.15 560.73 6.8 561.45 6.45 562.13 5.48 562.8 4.5 563.4 2.68 564 0.85 564.55-2.1L564.55-2.1 567.05-15.65 566.15-16.85 566.2-23.25Q569.4-23.65 570.85-24.05 572.3-24.45 572.85-24.45L572.85-24.45Q573.35-24.45 573.35-23.85L573.35-23.85Q573.35-23.6 572.73-21.75 572.1-19.9 571.4-17 570.7-14.1 570.55-10.5L570.55-10.5 570.2-1.5Q570.05 2 568.83 4.4 567.6 6.8 565.65 8.28 563.7 9.75 561.48 10.4 559.25 11.05 557.15 11.05ZM554 0.45L554 0.45Q551.2 0.45 550-1.83 548.8-4.1 548.8-8.2L548.8-8.2Q548.8-11.65 549.85-14.63 550.9-17.6 552.73-19.8 554.55-22 556.98-23.25 559.4-24.5 562.15-24.5L562.15-24.5Q564.3-24.5 566.08-23.93 567.85-23.35 569.1-22.75L569.1-22.75 567.65-17.5Q566.3-18.4 564.63-19.15 562.95-19.9 561.53-20.33 560.1-20.75 559.4-20.75L559.4-20.75Q558-20.75 556.88-19.35 555.75-17.95 555.1-15.6 554.45-13.25 554.45-10.35L554.45-10.35Q554.45-7.45 554.88-5.95 555.3-4.45 556.25-4.45L556.25-4.45Q556.9-4.45 558.43-5.85 559.95-7.25 562.1-10.6 564.25-13.95 566.7-19.85L566.7-19.85 568.1-15.4Q565.4-9.4 562.98-5.93 560.55-2.45 558.35-1 556.15 0.45 554 0.45ZM596.45 0.65L596.45 0.65Q592.2 0.65 589.55-0.7 586.9-2.05 586.9-4.2L586.9-4.2Q586.9-5.85 587.15-6.55 587.4-7.25 588-7.25L588-7.25Q588.4-7.25 589.25-6.65 590.1-6.05 591.33-5.3 592.55-4.55 594.08-3.95 595.6-3.35 597.4-3.35L597.4-3.35Q600-3.35 601.63-4.48 603.25-5.6 603.25-7.95L603.25-7.95Q603.25-10.2 602.2-11.35 601.15-12.5 599.05-13.85L599.05-13.85 595.9-15.85Q594.2-16.95 592.8-18.1 591.4-19.25 590.55-20.88 589.7-22.5 589.7-25L589.7-25Q589.7-28.1 591.3-30.3 592.9-32.5 595.7-33.65 598.5-34.8 602.1-34.8L602.1-34.8Q605.45-34.8 607.1-34.38 608.75-33.95 609.27-33.2 609.8-32.45 609.8-31.45L609.8-31.45Q609.8-30.05 609.4-29.33 609-28.6 608.55-28.6L608.55-28.6Q608.15-28.6 607.65-28.85 607.15-29.1 606.25-29.5L606.25-29.5Q605.55-29.85 604.02-30.33 602.5-30.8 600.85-30.8L600.85-30.8Q598.7-30.8 597.23-29.7 595.75-28.6 595.75-26.4L595.75-26.4Q595.75-24.35 596.85-23.18 597.95-22 599.8-21.1L599.8-21.1 602.55-19.8Q604.5-18.9 606.18-17.8 607.85-16.7 608.88-14.98 609.9-13.25 609.9-10.4L609.9-10.4Q609.9-5.1 606.25-2.23 602.6 0.65 596.45 0.65ZM620.45 0.8L620.45 0.8Q616.6 0.8 614.5-1.63 612.4-4.05 612.4-8.3L612.4-8.3Q612.4-11.85 613.4-14.8 614.4-17.75 616.2-19.95 618-22.15 620.42-23.35 622.85-24.55 625.7-24.55L625.7-24.55Q629.1-24.55 630.9-23.1 632.7-21.65 632.7-18.95L632.7-18.95Q632.7-16.2 630.88-14.15 629.05-12.1 625.63-10.65 622.2-9.2 617.45-8.2L617.45-8.2 616.8-11.2Q619.55-11.55 621.85-12.4 624.15-13.25 625.55-14.68 626.95-16.1 626.95-18.05L626.95-18.05Q626.95-19.4 626.42-20.1 625.9-20.8 624.55-20.8L624.55-20.8Q622.5-20.8 621.07-19.3 619.65-17.8 618.92-15.4 618.2-13 618.2-10.3L618.2-10.3Q618.2-6.65 619.32-5.43 620.45-4.2 622.65-4.2L622.65-4.2Q624.95-4.2 626.67-4.93 628.4-5.65 629.65-6.45L629.65-6.45Q630.05-6.7 630.35-6.85 630.65-7 630.85-7L630.85-7Q631.1-7 631.25-6.8 631.4-6.6 631.4-6.35L631.4-6.35Q631.4-5.45 630.6-4.25 629.8-3.05 628.32-1.9 626.85-0.75 624.85 0.03 622.85 0.8 620.45 0.8ZM642.7 0.8L642.7 0.8Q638.75 0.8 636.65-1.65 634.55-4.1 634.55-8.7L634.55-8.7Q634.55-13.2 636.33-16.8 638.1-20.4 641.17-22.48 644.25-24.55 648.2-24.55L648.2-24.55Q650.3-24.55 651.9-24 653.5-23.45 653.5-21.7L653.5-21.7Q653.5-20.95 653.25-20.2 653-19.45 652.6-18.95 652.2-18.45 651.8-18.45L651.8-18.45Q651.6-18.45 651.25-18.57 650.9-18.7 650.65-18.85L650.65-18.85Q650.1-19.2 649.33-19.65 648.55-20.1 647.63-20.45 646.7-20.8 645.7-20.8L645.7-20.8Q644.15-20.8 642.92-19.35 641.7-17.9 641-15.5 640.3-13.1 640.3-10.3L640.3-10.3Q640.3-6.6 641.42-5.38 642.55-4.15 644.7-4.15L644.7-4.15Q646.5-4.15 647.75-4.78 649-5.4 650.15-6.2L650.15-6.2Q650.6-6.5 650.85-6.58 651.1-6.65 651.3-6.65L651.3-6.65Q651.55-6.65 651.7-6.45 651.85-6.25 651.85-6L651.85-6Q651.85-5.1 651.1-3.93 650.35-2.75 649.05-1.68 647.75-0.6 646.13 0.1 644.5 0.8 642.7 0.8ZM660.3 0.65L660.3 0.65Q658.35 0.65 657.27-0.43 656.2-1.5 656.2-3.65L656.2-3.65Q656.2-4.4 656.23-5.15 656.25-5.9 656.38-6.95 656.5-8 656.7-9.65L656.7-9.65 658.6-24.55 662.1-24.55Q662.95-24.55 663.23-23.58 663.5-22.6 663.5-21.2L663.5-21.2Q663.5-20.15 663.35-18.45 663.2-16.75 662.9-14.7L662.9-14.7 662.3-10.6Q662.1-9.2 662.02-8.1 661.95-7 661.95-6.3L661.95-6.3Q661.95-5.3 662.17-4.78 662.4-4.25 663.05-4.25L663.05-4.25Q663.8-4.25 664.95-5.35 666.1-6.45 667.38-8.25 668.65-10.05 669.75-12.13 670.85-14.2 671.55-16.15 672.25-18.1 672.25-19.5L672.25-19.5Q672.25-20.65 671.98-21.43 671.7-22.2 671.75-22.7L671.75-22.7Q671.75-23.15 672.33-23.5 672.9-23.85 673.7-24.08 674.5-24.3 675.3-24.43 676.1-24.55 676.55-24.55L676.55-24.55Q677.4-24.55 677.88-23.55 678.35-22.55 678.15-20.7L678.15-20.7 675.8 0.5 672.3 0.5Q671.7 0.5 671.35-0.13 671-0.75 670.88-1.55 670.75-2.35 670.75-2.75L670.75-2.75Q670.75-3.9 671.08-5.25 671.4-6.6 672.02-8.7 672.65-10.8 673.55-14.1L673.55-14.1 673.55-13.25Q671.6-8.15 669.25-5.1 666.9-2.05 664.6-0.7 662.3 0.65 660.3 0.65ZM687.65-1.2L687.65-1.2 686.45-8.75Q688.3-13.55 690.22-17.07 692.15-20.6 694.15-22.55 696.15-24.5 698.2-24.5L698.2-24.5Q699.35-24.5 699.85-23.78 700.35-23.05 700.35-21.95L700.35-21.95Q700.35-20.95 700.13-20.03 699.9-19.1 699.47-18.5 699.05-17.9 698.45-17.9L698.45-17.9Q697.9-17.9 697.22-18.25 696.55-18.6 695.4-18.6L695.4-18.6Q694.65-18.6 693.5-17.05 692.35-15.5 691.13-12.93 689.9-10.35 688.95-7.28 688-4.2 687.65-1.2ZM683.45 0.7L683.45 0.7Q682.8 0.7 682.47 0.48 682.15 0.25 682.13-0.7 682.1-1.65 682.35-3.75L682.35-3.75 684.7-24.55 688.2-24.55Q688.95-24.55 689.55-23.45 690.15-22.35 690.15-20.95L690.15-20.95Q690.15-20.3 689.77-18.93 689.4-17.55 688.9-16.03 688.4-14.5 688-13.35L688-13.35 686.7-9.25 688.55-9.55 687.65-1.2Q687.6-0.7 687.05-0.33 686.5 0.05 685.77 0.28 685.05 0.5 684.4 0.6 683.75 0.7 683.45 0.7ZM706.5 0.8L703 0.8Q702.15 0.8 701.9-0.18 701.65-1.15 701.65-2.2L701.65-2.2Q701.65-4 701.82-5.4 702-6.8 702.2-8.5L702.2-8.5 704-24.55 707.5-24.55Q708.5-24.55 708.8-23.45 709.1-22.35 709.1-20.95L709.1-20.95Q709.1-20.25 709-19.48 708.9-18.7 708.7-17.1L708.7-17.1 707.75-8.95Q707.45-6.35 707.2-4.6 706.95-2.85 706.8-1.6 706.65-0.35 706.5 0.8L706.5 0.8ZM707.4-27.4L707.4-27.4Q706-27.4 704.97-28.35 703.95-29.3 703.95-30.85L703.95-30.85Q703.95-32.7 705.15-33.73 706.35-34.75 707.9-34.75L707.9-34.75Q709.35-34.75 710.32-33.9 711.3-33.05 711.3-31.35L711.3-31.35Q711.3-29.65 710.15-28.53 709-27.4 707.4-27.4ZM717.8 0.8L717.8 0.8Q715.4 0.8 714.42-0.6 713.45-2 713.8-5L713.8-5 715.75-20.25 714.15-20.25Q713.4-20.25 713.4-21.05L713.4-21.05Q713.4-21.55 714.07-22.5 714.75-23.45 715.8-24.6 716.85-25.75 717.97-26.8 719.1-27.85 720.05-28.53 721-29.2 721.5-29.2L721.5-29.2Q722.05-29.2 722.25-28.78 722.45-28.35 722.35-27.7L722.35-27.7 721.9-23.75 727.5-23.75Q728.25-23.75 728.37-23.5 728.5-23.25 728.3-22.7L728.3-22.7Q727.7-21 727.17-20.63 726.65-20.25 725.25-20.25L725.25-20.25 721.25-20.25 720-9.55Q719.9-8.6 719.82-7.75 719.75-6.9 719.75-6.2L719.75-6.2Q719.75-5.05 720.3-4.58 720.85-4.1 722.1-4.1L722.1-4.1Q723.3-4.1 724.17-4.6 725.05-5.1 725.4-5.1L725.4-5.1Q725.8-5.1 725.8-4.6L725.8-4.6Q725.8-4.1 725.27-3.2 724.75-2.3 723.72-1.38 722.7-0.45 721.2 0.18 719.7 0.8 717.8 0.8ZM736.45 11.05L736.45 11.05Q734.3 11.05 732.65 10.38 731 9.7 730.05 8.2 729.1 6.7 729.1 4.2L729.1 4.2Q729.1 3.7 729.27 3.53 729.45 3.35 729.65 3.35L729.65 3.35Q729.9 3.35 730.25 3.55 730.6 3.75 731.25 4.15L731.25 4.15Q732.15 4.75 733.32 5.43 734.5 6.1 735.85 6.6 737.2 7.1 738.5 7.1L738.5 7.1Q739.8 7.1 740.9 6.28 742 5.45 742.97 3.4 743.95 1.35 744.85-2.25L744.85-2.25 747.65-13.65 747.95-13.7Q746.1-8.8 743.67-5.63 741.25-2.45 738.77-0.93 736.3 0.6 734.3 0.6L734.3 0.6Q732.2 0.6 731.2-0.55 730.2-1.7 730.2-3.75L730.2-3.75Q730.2-4.75 730.32-5.95 730.45-7.15 730.75-9.7L730.75-9.7 732.6-24.55 736.1-24.55Q736.95-24.55 737.4-23.58 737.85-22.6 737.85-21.2L737.85-21.2Q737.85-20.2 737.75-19.43 737.65-18.65 737.47-17.68 737.3-16.7 737-14.9L737-14.9 736.3-10.6Q736.1-9.2 735.97-8.13 735.85-7.05 735.85-6.35L735.85-6.35Q735.85-5.3 736.07-4.78 736.3-4.25 737.1-4.25L737.1-4.25Q737.95-4.25 739.07-5.35 740.2-6.45 741.4-8.2 742.6-9.95 743.62-11.95 744.65-13.95 745.3-15.83 745.95-17.7 745.95-18.95L745.95-18.95Q745.95-19.8 745.8-20.78 745.65-21.75 745.65-22.5L745.65-22.5Q745.65-23.1 746.62-23.58 747.6-24.05 748.82-24.3 750.05-24.55 750.75-24.55L750.75-24.55Q751.45-24.55 751.87-23.9 752.3-23.25 752.3-21.45L752.3-21.45Q752.3-20.6 752.02-18.93 751.75-17.25 751.65-15.8L751.65-15.8 750.4-1.5Q750.1 1.75 748.77 4.13 747.45 6.5 745.45 8.03 743.45 9.55 741.1 10.3 738.75 11.05 736.45 11.05Z" opacity="1" transform="matrix(1,0,0,1,0,0)" fill="#ffffff" class="slogan-text-1" data-fill-palette-color="quaternary" id="text-1"></path></svg></g></svg></g></svg></g></svg></g><g transform="matrix(1,0,0,1,66.1033207374442,0)"><svg viewBox="0 0 80.95179975226874 99.08544070016227" height="99.08544070016227" width="80.95179975226874"><g><svg xmlns="http://www.w3.org/2000/svg" xmlns:xlink="http://www.w3.org/1999/xlink" version="1.1" x="0" y="0" viewBox="37.516 14.173000000000002 208.42800063728964 255.11700000000002" enable-background="new 0 0 283.46 283.46" xml:space="preserve" height="99.08544070016227" width="80.95179975226874" class="icon-icon-0" data-fill-palette-color="quaternary" id="icon-0"><path fill="#ffffff" d="M208.891 95.529C207.129 88.661 202.761 84.354 197.424 84.115L201.822 74.041A190.44 190.44 0 0 0 82.037 74.307L86.035 84.115C80.702 84.356 76.33 88.663 74.572 95.529 72.816 102.385 73.94 109.534 74.766 113.188 75.957 118.459 77.722 122.744 80.317 126.677 82.259 129.62 86.165 134.367 91.567 135.245 101.555 156.621 120.909 170.242 141.731 170.242S181.909 156.621 191.894 135.245C197.297 134.364 201.204 129.616 203.147 126.674 205.736 122.752 207.5 118.466 208.696 113.188 209.521 109.534 210.646 102.386 208.891 95.529M198.62 110.905C197.704 114.931 196.404 118.13 194.521 120.98 192.7 123.739 190.844 125.034 190.044 125.034H190.029C188.53 124.587 187.036 124.139 185.537 123.693L183.766 128.04C177.495 143.445 163.16 159.908 141.731 159.908 120.304 159.908 105.968 143.445 99.697 128.04L97.821 123.715 93.328 125.053C92.642 125.053 90.776 123.761 88.944 120.985 87.058 118.128 85.758 114.926 84.848 110.91 83.792 106.238 83.697 101.568 84.584 98.096 85.221 95.618 86.236 94.523 86.495 94.41 86.497 94.41 86.894 94.419 87.735 94.969L94.404 99.361C94.83 96.733 95.254 94.106 95.678 91.478 95.759 90.978 95.845 90.481 95.934 89.989A99.63 99.63 0 0 0 187.525 89.986C187.616 90.481 187.702 90.978 187.783 91.48 188.207 94.107 188.636 96.734 189.06 99.361 191.28 97.897 193.506 96.432 195.727 94.969 196.537 94.434 196.933 94.41 196.928 94.402 197.225 94.527 198.242 95.625 198.875 98.098 199.769 101.568 199.672 106.237 198.62 110.905" data-fill-palette-color="quaternary"></path><path fill="#ffffff" d="M221.525 203.185L183.416 165.076 162.575 269.29H245.944V262.139A83.35 83.35 0 0 0 221.525 203.185M211.997 233.133C208.365 234.476 204.767 234.958 200.929 234.958 197.096 234.958 193.5 234.476 189.868 233.136 186.901 232.038 182.326 229.719 182.326 225.657 182.326 221.596 186.895 219.277 189.863 218.179 193.495 216.837 197.091 216.355 200.928 216.355S208.36 216.834 211.989 218.177C214.957 219.275 219.534 221.594 219.534 225.656 219.534 229.717 214.962 232.035 211.997 233.133" data-fill-palette-color="quaternary"></path><path fill="#ffffff" d="M165.148 133.517V137.338C158.578 135.364 152.057 134.768 145.262 134.768 143.61 133.115 142.401 131.6 142.331 129.064 142.261 131.6 141.053 133.115 139.398 134.768 132.605 134.768 126.084 135.365 119.512 137.338V133.517A5.704 5.704 0 0 1 123.833 127.983L135.412 125.087C140.149 123.903 144.51 123.903 149.247 125.087L160.827 127.983A5.704 5.704 0 0 1 165.148 133.517" data-fill-palette-color="quaternary"></path><path fill="#ffffff" d="M188.637 23.434C195.234 30.8 202.946 35.163 211.891 38.782 214.054 39.657 216.239 40.448 218.454 41.175 219.615 41.556 220.781 41.918 221.954 42.262L222.852 42.522C223.41 42.683 222.451 42.942 222.237 43.137 221.775 43.557 221.315 43.982 220.859 44.41 217.515 47.562 214.439 50.883 211.712 54.594A52 52 0 0 0 207.811 60.707C207.271 61.707 206.771 62.723 206.312 63.764 206.13 64.174 205.837 63.798 205.595 63.719A244 244 0 0 0 203.12 62.917 201 201 0 0 0 189.668 59.167 201 201 0 0 0 161.955 54.483C143.01 52.629 124.7 53.398 105.974 56.834A201 201 0 0 0 78.782 63.814C78.316 63.969 77.901 64.148 77.65 63.559A45 45 0 0 0 75.585 59.355 54 54 0 0 0 71.966 53.749C68.944 49.631 65.509 45.987 61.762 42.539 74.991 38.759 86.378 34.212 96.029 23.436 97.811 21.445 99.568 20.765 102.227 21.035 115.41 22.376 126.905 21.261 139.004 15.085 141.391 13.869 143.277 13.869 145.665 15.085 157.762 21.261 169.259 22.377 182.441 21.035 185.097 20.763 186.855 21.443 188.637 23.434" data-fill-palette-color="quaternary"></path><path fill="#ffffff" d="M120.889 269.289H162.576C157.991 241.778 153.4 214.263 148.818 186.752 151.01 185.253 152.835 183.572 154.319 181.337 155.227 179.974 155.883 178.591 156.186 176.956 156.373 175.936 156.476 175.048 155.934 174.064 153.723 170.042 145.209 169.247 141.732 169.247 138.253 169.247 129.742 170.044 127.53 174.064 126.988 175.047 127.092 175.939 127.276 176.956 127.574 178.591 128.233 179.969 129.14 181.337 130.626 183.57 132.451 185.253 134.644 186.752z" data-fill-palette-color="quaternary"></path><path fill="#ffffff" d="M100.047 165.075C87.341 177.778 74.638 190.481 61.935 203.184A83.38 83.38 0 0 0 37.516 262.137V269.288H120.887C113.943 234.552 106.995 199.813 100.047 165.075" data-fill-palette-color="quaternary"></path></svg></g></svg></g><g></g></svg></g></svg></g></svg></g></svg></g><defs></defs></svg><rect width="342.85155851775386" height="342.85155851775386" fill="none" stroke="none" visibility="hidden"></rect></g></svg></g></svg>